<svg xmlns="http://www.w3.org/2000/svg" width="400" height="400"><g><title>background</title><rect id="canvas_background" width="402" height="402" x="-1" y="-1" fill="#fff"/><g id="canvasGrid" width="100%" height="100%" x="0" y="0" display="none"><rect width="100%" height="100%" x="0" y="0" fill="url(#gridpattern)" stroke-width="0"/></g></g><g><title>Layer 1</title><g id="svg_50"><g id="svg_47" transform="matrix(2.917423850280798,0,0,2.917423850280798,0,0)"><title transform="translate(-221.44639587402344,0) translate(0,-131.44638061523438)">background</title><rect id="svg_45" width="582" height="402" x="-222.446" y="-132.446" fill="#fcffff"/><g id="svg_44" display="none"><rect id="svg_48" width="400" height="400" x="-221.446" y="-131.446" fill="url(#gridpattern)" stroke-width="0"/></g></g><g id="svg_49" transform="matrix(2.917423850280798,0,0,2.917423850280798,0,0)"><title transform="translate(0,13.997456550598145) translate(-3.5177905559539795,0) translate(-221.44639587402344,0) translate(0,-131.44638061523438)">Layer 1</title><ellipse id="svg_43" cx="68.554" cy="68.554" fill="#fff" stroke="#000" stroke-width="1.5" rx="66" ry="66"/><g id="svg_37"><text id="svg_42" x="30.408" y="107.196" fill="#000" fill-opacity="null" stroke="#000" stroke-opacity="null" stroke-width="0" font-family="'League Gothic', sans-serif" font-size="28" font-weight="bold" text-anchor="start" xml:space="preserve">UI-Lib</text><g id="svg_39"><path id="svg_41" fill="#00bf5f" stroke="#000" stroke-opacity="null" stroke-width="1.5" d="m39.685094,69.285696c0,0 -26,-45 19,-14c45,31 -19,14 -19,14z" transform="rotate(-180 53.46681213378907,59.163455963134766)"/><path id="svg_40" fill="#e023e0" stroke="#000" stroke-opacity="null" stroke-width="1.5" d="m68.018274,48.869146c0,0 -26,-45 19,-14c45,31 -19,14 -19,14z"/></g><line id="svg_38" x1="21.106" x2="116.001" y1="80.293" y2="80.293" fill="none" stroke="#000" stroke-linecap="null" stroke-linejoin="null" stroke-opacity="null" stroke-width="1.5"/></g></g></g></g></svg>